PathFileType	4	(X/Y/Z)	D:\TRACE\v60_Jaco2_6-2-23\BothDRS_Motion3_1-platform.trc
DataRate	CameraRate	NumFrames	NumMarkers	Units	OrigDataRate	OrigDataStartFrame	OrigNumFrames
100.00	100.00	      24	5	mm	100.00	6126	      7000
Frame#	Time	Left_Front			Right_Front			Left_Aft			Right_Aft			Post			
		X1	Y1	Z1	X2	Y2	Z2	X3	Y3	Z3	X4	Y4	Z4	X5	Y5	Z5	

6126	61.250	-782.60535	38.24237	-643.29987	788.21936	35.95072	-620.74603	-713.21906	-7.82820	492.07672	701.14667	-14.16180	595.00934	12.75582	1347.67920	-900.76776	
6127	61.260	-782.75818	38.21656	-643.38995	788.05273	35.98962	-620.70844	-713.32544	-7.87952	492.05539	701.07355	-14.15466	595.02881	12.64668	1347.75269	-900.90442	
6128	61.270	-782.78174	38.15149	-643.50708	788.01251	35.99984	-620.68927	-713.42639	-7.88188	492.05649	700.95264	-14.19634	595.05780	12.64727	1347.85046	-901.13129	
6129	61.280	-782.84039	38.14026	-643.49091	787.99988	36.04635	-620.66217	-713.52814	-7.90034	492.11215	700.85834	-14.24915	595.04803	12.57970	1347.88416	-901.32971	
6130	61.290	-782.92706	38.31570	-643.34912	787.86591	36.04612	-620.59131	-713.58557	-7.92229	492.12738	700.93158	-14.36831	595.00885	12.58009	1347.89893	-901.54669	
6131	61.300	-783.04169	38.40395	-643.28491	787.88232	36.12589	-620.62720	-713.64771	-7.97747	492.12366	700.73718	-14.48326	595.01038	12.50412	1347.96411	-901.61560	
6132	61.310	-783.19769	38.59426	-643.16583	787.86493	36.17523	-620.58521	-713.77429	-7.92606	492.12109	700.60291	-14.55068	594.99048	12.44409	1348.06470	-901.55194	
6133	61.320	-783.30176	38.69606	-643.11353	787.79797	36.19904	-620.57013	-713.88129	-7.95160	492.09015	700.33643	-14.93183	594.45441	12.15661	1348.14148	-901.11725	
6134	61.330	-783.32520	38.71537	-643.17090	787.68524	36.24205	-620.59583	-713.99091	-8.04092	492.07895	699.56110	-15.43856	594.29706	11.85395	1348.10425	-900.79163	
6135	61.340	-783.36475	38.65725	-643.17554	787.55804	36.24676	-620.55096	-714.02081	-8.32697	492.19910	699.87140	-15.13809	594.68420	11.80617	1348.04126	-900.52368	
6136	61.350	-783.29395	38.58141	-643.30768	787.44299	36.28981	-620.54980	-714.09119	-8.33819	492.30093	699.77179	-15.58053	594.50964	11.63433	1347.99866	-900.14197	
6137	61.360	-783.35162	38.62924	-643.28009	787.38623	36.42385	-620.47980	-714.16565	-8.30667	492.26160	699.79156	-15.27135	594.75360	11.41198	1348.17468	-899.70074	
6138	61.370	-783.42896	38.69043	-643.29486	787.25507	36.49160	-620.51520	-714.24304	-8.29463	492.21405	699.98724	-14.85599	595.02661	11.40458	1348.20715	-899.37994	
6139	61.380	-783.47937	38.75607	-643.35944	787.14423	36.53519	-620.51782	-714.38940	-8.29756	492.24329	700.13843	-14.60008	595.05933	11.30338	1348.15503	-899.24762	
6140	61.390	-783.55658	38.76709	-643.31482	786.97815	36.50435	-620.49713	-714.53973	-8.33718	492.29004	700.01208	-14.56826	595.06958	11.10390	1348.05762	-899.10864	
6141	61.400	-783.68207	38.76437	-643.39453	786.83234	36.51215	-620.49097	-714.61377	-8.33426	492.27136	699.92706	-14.54739	595.07043	10.99353	1348.05505	-899.17865	
6142	61.410	-783.83002	38.78417	-643.41730	786.68103	36.53362	-620.55109	-714.67725	-8.35872	492.30823	699.79321	-14.53694	595.05035	10.98398	1348.14258	-899.26135	
6143	61.420	-783.89655	38.86729	-643.50079	786.61060	36.55406	-620.57355	-714.77252	-8.28226	492.35660	699.56616	-14.56463	594.99255	11.01008	1348.21362	-899.53119	
6144	61.430	-784.00409	38.88554	-643.53912	786.54950	36.61657	-620.62280	-714.72913	-8.32310	492.24411	699.52673	-14.52408	594.98993	10.87533	1348.26440	-899.95502	
6145	61.440	-784.09698	38.95042	-643.55188	786.49744	36.69941	-620.63593	-714.81964	-8.34335	492.18906	699.14691	-14.78818	594.85724	10.74728	1348.31250	-900.22437	
6146	61.450	-784.15216	38.92295	-643.60388	786.43579	36.63224	-620.62451	-714.90570	-8.34381	492.20358	699.03363	-14.81398	594.87872	10.63812	1348.33081	-900.45093	
6147	61.460	-784.27344	38.86259	-643.66101	786.33008	36.52039	-620.60638	-714.95154	-8.42882	492.25037	699.12146	-14.68594	594.93628	10.48127	1348.35010	-900.57385	
6148	61.470	-784.41248	38.70043	-643.60339	786.23065	36.65539	-620.69379	-715.04364	-8.41667	492.20490	699.00842	-14.72325	594.91742	10.34673	1348.36414	-900.77795	
6149	61.480	-784.47668	38.76839	-643.73035	786.14142	36.54993	-620.71906	-715.18054	-8.38655	492.19217	698.89435	-14.70205	594.85443	10.33997	1348.33984	-900.71521	
